<?xml version="1.0" encoding="UTF-8" standalone="no"?>
<!DOCTYPE svg PUBLIC "-//W3C//DTD SVG 1.1//EN"
 "http://www.w3.org/Graphics/SVG/1.1/DTD/svg11.dtd">
<!-- Generated by graphviz version 2.43.0 (0)
 -->
<!-- Title: finite_state_machine Pages: 1 -->
<svg width="621pt" height="373pt"
 viewBox="0.00 0.00 620.79 372.80" xmlns="http://www.w3.org/2000/svg" xmlns:xlink="http://www.w3.org/1999/xlink">
<g id="graph0" class="graph" transform="scale(1 1) rotate(0) translate(4 368.8)">
<title>finite_state_machine</title>
<polygon fill="white" stroke="transparent" points="-4,4 -4,-368.8 616.79,-368.8 616.79,4 -4,4"/>
<!-- 7 -->
<g id="node1" class="node">
<title>7</title>
<ellipse fill="none" stroke="black" cx="18" cy="-258" rx="18" ry="18"/>
<text text-anchor="middle" x="18" y="-254.3" font-family="Helvetica,Arial,sans-serif" font-size="14.00">7</text>
</g>
<!-- 10 -->
<g id="node2" class="node">
<title>10</title>
<ellipse fill="none" stroke="black" cx="100.8" cy="-258" rx="20.6" ry="20.6"/>
<text text-anchor="middle" x="100.8" y="-254.3" font-family="Helvetica,Arial,sans-serif" font-size="14.00">10</text>
</g>
<!-- 7&#45;&gt;10 -->
<g id="edge1" class="edge">
<title>7&#45;&gt;10</title>
<path fill="none" stroke="black" d="M36.14,-258C45.82,-258 58.22,-258 69.5,-258"/>
<polygon fill="black" stroke="black" points="69.84,-261.5 79.84,-258 69.84,-254.5 69.84,-261.5"/>
<text text-anchor="middle" x="58" y="-261.8" font-family="Helvetica,Arial,sans-serif" font-size="14.00">1</text>
</g>
<!-- 12 -->
<g id="node3" class="node">
<title>12</title>
<ellipse fill="none" stroke="black" cx="186.39" cy="-344" rx="20.6" ry="20.6"/>
<text text-anchor="middle" x="186.39" y="-340.3" font-family="Helvetica,Arial,sans-serif" font-size="14.00">12</text>
</g>
<!-- 7&#45;&gt;12 -->
<g id="edge2" class="edge">
<title>7&#45;&gt;12</title>
<path fill="none" stroke="black" d="M30.84,-270.79C50.87,-291.37 93.76,-331.06 139.6,-346 144.67,-347.65 150.22,-348.3 155.66,-348.36"/>
<polygon fill="black" stroke="black" points="156.01,-351.85 165.82,-347.86 155.66,-344.86 156.01,-351.85"/>
<text text-anchor="middle" x="100.8" y="-341.8" font-family="Helvetica,Arial,sans-serif" font-size="14.00">2</text>
</g>
<!-- 10&#45;&gt;12 -->
<g id="edge23" class="edge">
<title>10&#45;&gt;12</title>
<path fill="none" stroke="black" d="M115.98,-272.59C129.19,-286.18 149.06,-306.62 164.16,-322.16"/>
<polygon fill="black" stroke="black" points="161.66,-324.61 171.14,-329.34 166.68,-319.73 161.66,-324.61"/>
<text text-anchor="middle" x="143.6" y="-306.8" font-family="Helvetica,Arial,sans-serif" font-size="14.00">4</text>
</g>
<!-- 9 -->
<g id="node6" class="node">
<title>9</title>
<ellipse fill="none" stroke="black" cx="186.39" cy="-205" rx="18" ry="18"/>
<text text-anchor="middle" x="186.39" y="-201.3" font-family="Helvetica,Arial,sans-serif" font-size="14.00">9</text>
</g>
<!-- 10&#45;&gt;9 -->
<g id="edge22" class="edge">
<title>10&#45;&gt;9</title>
<path fill="none" stroke="black" d="M111.63,-239.9C118.17,-229.68 127.73,-217.67 139.6,-211 145.15,-207.88 151.67,-206.12 158.01,-205.17"/>
<polygon fill="black" stroke="black" points="158.69,-208.63 168.34,-204.26 158.07,-201.65 158.69,-208.63"/>
<text text-anchor="middle" x="143.6" y="-214.8" font-family="Helvetica,Arial,sans-serif" font-size="14.00">2</text>
</g>
<!-- 12&#45;&gt;10 -->
<g id="edge24" class="edge">
<title>12&#45;&gt;10</title>
<path fill="none" stroke="black" d="M166.5,-337.85C157.59,-334.26 147.26,-329.04 139.6,-322 128.87,-312.15 120.25,-298.55 113.98,-286.42"/>
<polygon fill="black" stroke="black" points="116.97,-284.57 109.44,-277.11 110.67,-287.63 116.97,-284.57"/>
<text text-anchor="middle" x="143.6" y="-330.8" font-family="Helvetica,Arial,sans-serif" font-size="14.00">2</text>
</g>
<!-- 5 -->
<g id="node4" class="node">
<title>5</title>
<ellipse fill="none" stroke="black" cx="594.79" cy="-67" rx="18" ry="18"/>
<text text-anchor="middle" x="594.79" y="-63.3" font-family="Helvetica,Arial,sans-serif" font-size="14.00">5</text>
</g>
<!-- 5&#45;&gt;7 -->
<g id="edge3" class="edge">
<title>5&#45;&gt;7</title>
<path fill="none" stroke="black" d="M584.67,-51.8C571.52,-32.03 545.25,0 512.99,0 99.8,0 99.8,0 99.8,0 52.11,0 29.22,-162.53 21.81,-229.59"/>
<polygon fill="black" stroke="black" points="18.29,-229.54 20.71,-239.86 25.25,-230.29 18.29,-229.54"/>
<text text-anchor="middle" x="309.19" y="-3.8" font-family="Helvetica,Arial,sans-serif" font-size="14.00">1</text>
</g>
<!-- 5&#45;&gt;10 -->
<g id="edge4" class="edge">
<title>5&#45;&gt;10</title>
<path fill="none" stroke="black" d="M578.01,-60.36C561.94,-54.2 536.18,-46 512.99,-46 185.39,-46 185.39,-46 185.39,-46 146.85,-46 118.54,-168.84 107.23,-227.51"/>
<polygon fill="black" stroke="black" points="103.72,-227.2 105.31,-237.67 110.6,-228.49 103.72,-227.2"/>
<text text-anchor="middle" x="349.19" y="-49.8" font-family="Helvetica,Arial,sans-serif" font-size="14.00">1</text>
</g>
<!-- 11 -->
<g id="node5" class="node">
<title>11</title>
<ellipse fill="none" stroke="black" cx="511.99" cy="-218" rx="20.6" ry="20.6"/>
<text text-anchor="middle" x="511.99" y="-214.3" font-family="Helvetica,Arial,sans-serif" font-size="14.00">11</text>
</g>
<!-- 11&#45;&gt;9 -->
<g id="edge5" class="edge">
<title>11&#45;&gt;9</title>
<path fill="none" stroke="black" d="M491.07,-217.2C435.5,-214.97 278.68,-208.67 214.89,-206.1"/>
<polygon fill="black" stroke="black" points="214.92,-202.6 204.79,-205.7 214.64,-209.6 214.92,-202.6"/>
<text text-anchor="middle" x="349.19" y="-216.8" font-family="Helvetica,Arial,sans-serif" font-size="14.00">2</text>
</g>
<!-- 9&#45;&gt;10 -->
<g id="edge21" class="edge">
<title>9&#45;&gt;10</title>
<path fill="none" stroke="black" d="M170.74,-214.29C158.82,-221.85 141.72,-232.69 127.53,-241.68"/>
<polygon fill="black" stroke="black" points="125.29,-238.96 118.72,-247.27 129.03,-244.88 125.29,-238.96"/>
<text text-anchor="middle" x="143.6" y="-237.8" font-family="Helvetica,Arial,sans-serif" font-size="14.00">2</text>
</g>
<!-- 6 -->
<g id="node11" class="node">
<title>6</title>
<ellipse fill="none" stroke="black" cx="269.19" cy="-154" rx="18" ry="18"/>
<text text-anchor="middle" x="269.19" y="-150.3" font-family="Helvetica,Arial,sans-serif" font-size="14.00">6</text>
</g>
<!-- 9&#45;&gt;6 -->
<g id="edge20" class="edge">
<title>9&#45;&gt;6</title>
<path fill="none" stroke="black" d="M195.69,-189.07C202.19,-178.35 212.28,-164.94 225.19,-158 229.94,-155.45 235.42,-154.01 240.83,-153.27"/>
<polygon fill="black" stroke="black" points="241.23,-156.75 250.97,-152.58 240.76,-149.77 241.23,-156.75"/>
<text text-anchor="middle" x="229.19" y="-161.8" font-family="Helvetica,Arial,sans-serif" font-size="14.00">2</text>
</g>
<!-- 8 -->
<g id="node7" class="node">
<title>8</title>
<ellipse fill="none" stroke="black" cx="429.19" cy="-184" rx="18" ry="18"/>
<text text-anchor="middle" x="429.19" y="-180.3" font-family="Helvetica,Arial,sans-serif" font-size="14.00">8</text>
</g>
<!-- 8&#45;&gt;11 -->
<g id="edge6" class="edge">
<title>8&#45;&gt;11</title>
<path fill="none" stroke="black" d="M446.19,-190.12C454.32,-193.28 464.32,-197.25 473.19,-201 476.47,-202.39 479.9,-203.87 483.29,-205.37"/>
<polygon fill="black" stroke="black" points="482.05,-208.65 492.61,-209.53 484.91,-202.25 482.05,-208.65"/>
<text text-anchor="middle" x="469.19" y="-204.8" font-family="Helvetica,Arial,sans-serif" font-size="14.00">2</text>
</g>
<!-- 2 -->
<g id="node8" class="node">
<title>2</title>
<ellipse fill="none" stroke="black" cx="511.99" cy="-155" rx="18" ry="18"/>
<text text-anchor="middle" x="511.99" y="-151.3" font-family="Helvetica,Arial,sans-serif" font-size="14.00">2</text>
</g>
<!-- 2&#45;&gt;5 -->
<g id="edge7" class="edge">
<title>2&#45;&gt;5</title>
<path fill="none" stroke="black" d="M529.34,-150.03C538.84,-146.49 550.52,-140.95 558.79,-133 562.14,-129.78 572.73,-109.45 581.38,-92.19"/>
<polygon fill="black" stroke="black" points="584.61,-93.56 585.94,-83.05 578.35,-90.44 584.61,-93.56"/>
<text text-anchor="middle" x="554.79" y="-143.8" font-family="Helvetica,Arial,sans-serif" font-size="14.00">2</text>
</g>
<!-- 4 -->
<g id="node9" class="node">
<title>4</title>
<ellipse fill="none" stroke="black" cx="594.79" cy="-129" rx="18" ry="18"/>
<text text-anchor="middle" x="594.79" y="-125.3" font-family="Helvetica,Arial,sans-serif" font-size="14.00">4</text>
</g>
<!-- 4&#45;&gt;10 -->
<g id="edge8" class="edge">
<title>4&#45;&gt;10</title>
<path fill="none" stroke="black" d="M592.08,-146.95C587.3,-185.55 570.18,-273 512.99,-273 185.39,-273 185.39,-273 185.39,-273 167.01,-273 146.7,-269.44 130.71,-265.79"/>
<polygon fill="black" stroke="black" points="131.42,-262.36 120.88,-263.42 129.78,-269.17 131.42,-262.36"/>
<text text-anchor="middle" x="349.19" y="-276.8" font-family="Helvetica,Arial,sans-serif" font-size="14.00">2</text>
</g>
<!-- 1 -->
<g id="node10" class="node">
<title>1</title>
<ellipse fill="none" stroke="black" cx="511.99" cy="-96" rx="18" ry="18"/>
<text text-anchor="middle" x="511.99" y="-92.3" font-family="Helvetica,Arial,sans-serif" font-size="14.00">1</text>
</g>
<!-- 1&#45;&gt;5 -->
<g id="edge9" class="edge">
<title>1&#45;&gt;5</title>
<path fill="none" stroke="black" d="M528.66,-88.92C535.4,-85.99 543.42,-82.67 550.79,-80 556.2,-78.04 562.06,-76.14 567.66,-74.41"/>
<polygon fill="black" stroke="black" points="568.74,-77.74 577.32,-71.53 566.74,-71.03 568.74,-77.74"/>
<text text-anchor="middle" x="554.79" y="-83.8" font-family="Helvetica,Arial,sans-serif" font-size="14.00">2</text>
</g>
<!-- 1&#45;&gt;4 -->
<g id="edge11" class="edge">
<title>1&#45;&gt;4</title>
<path fill="none" stroke="black" d="M528.95,-102.52C540.24,-107.13 555.61,-113.41 568.55,-118.69"/>
<polygon fill="black" stroke="black" points="567.28,-121.95 577.86,-122.49 569.92,-115.47 567.28,-121.95"/>
<text text-anchor="middle" x="554.79" y="-118.8" font-family="Helvetica,Arial,sans-serif" font-size="14.00">2</text>
</g>
<!-- 1&#45;&gt;6 -->
<g id="edge10" class="edge">
<title>1&#45;&gt;6</title>
<path fill="none" stroke="black" d="M493.68,-97.18C473.78,-98.54 440.12,-100.87 411.19,-103 399.63,-103.85 396.55,-102.68 385.19,-105 348.42,-112.5 339.09,-115.9 305.19,-132 301.18,-133.9 297.06,-136.17 293.13,-138.52"/>
<polygon fill="black" stroke="black" points="291.01,-135.72 284.4,-144 294.73,-141.65 291.01,-135.72"/>
<text text-anchor="middle" x="389.19" y="-108.8" font-family="Helvetica,Arial,sans-serif" font-size="14.00">2</text>
</g>
<!-- 6&#45;&gt;9 -->
<g id="edge19" class="edge">
<title>6&#45;&gt;9</title>
<path fill="none" stroke="black" d="M253.47,-163.29C241.53,-170.83 224.5,-181.58 210.72,-190.28"/>
<polygon fill="black" stroke="black" points="208.8,-187.35 202.21,-195.65 212.54,-193.27 208.8,-187.35"/>
<text text-anchor="middle" x="229.19" y="-185.8" font-family="Helvetica,Arial,sans-serif" font-size="14.00">0</text>
</g>
<!-- 3 -->
<g id="node13" class="node">
<title>3</title>
<ellipse fill="none" stroke="black" cx="349.19" cy="-160" rx="18" ry="18"/>
<text text-anchor="middle" x="349.19" y="-156.3" font-family="Helvetica,Arial,sans-serif" font-size="14.00">3</text>
</g>
<!-- 6&#45;&gt;3 -->
<g id="edge18" class="edge">
<title>6&#45;&gt;3</title>
<path fill="none" stroke="black" d="M287.5,-155.33C297.37,-156.09 309.94,-157.06 321.09,-157.92"/>
<polygon fill="black" stroke="black" points="320.96,-161.42 331.2,-158.69 321.5,-154.44 320.96,-161.42"/>
<text text-anchor="middle" x="309.19" y="-161.8" font-family="Helvetica,Arial,sans-serif" font-size="14.00">2</text>
</g>
<!-- 0 -->
<g id="node12" class="node">
<title>0</title>
<ellipse fill="none" stroke="black" cx="429.19" cy="-130" rx="18" ry="18"/>
<text text-anchor="middle" x="429.19" y="-126.3" font-family="Helvetica,Arial,sans-serif" font-size="14.00">0</text>
</g>
<!-- 0&#45;&gt;2 -->
<g id="edge13" class="edge">
<title>0&#45;&gt;2</title>
<path fill="none" stroke="black" d="M446.54,-135.06C457.6,-138.48 472.45,-143.07 485.1,-146.99"/>
<polygon fill="black" stroke="black" points="484.08,-150.34 494.66,-149.95 486.15,-143.65 484.08,-150.34"/>
<text text-anchor="middle" x="469.19" y="-147.8" font-family="Helvetica,Arial,sans-serif" font-size="14.00">2</text>
</g>
<!-- 0&#45;&gt;1 -->
<g id="edge12" class="edge">
<title>0&#45;&gt;1</title>
<path fill="none" stroke="black" d="M446.16,-123.28C457.44,-118.53 472.81,-112.07 485.75,-106.62"/>
<polygon fill="black" stroke="black" points="487.2,-109.81 495.06,-102.7 484.49,-103.36 487.2,-109.81"/>
<text text-anchor="middle" x="469.19" y="-119.8" font-family="Helvetica,Arial,sans-serif" font-size="14.00">4</text>
</g>
<!-- 0&#45;&gt;3 -->
<g id="edge14" class="edge">
<title>0&#45;&gt;3</title>
<path fill="none" stroke="black" d="M412.05,-136.21C401.6,-140.23 387.76,-145.55 375.82,-150.14"/>
<polygon fill="black" stroke="black" points="374.43,-146.93 366.35,-153.78 376.94,-153.46 374.43,-146.93"/>
<text text-anchor="middle" x="389.19" y="-149.8" font-family="Helvetica,Arial,sans-serif" font-size="14.00">0</text>
</g>
<!-- 3&#45;&gt;8 -->
<g id="edge15" class="edge">
<title>3&#45;&gt;8</title>
<path fill="none" stroke="black" d="M365.55,-168.01C371.55,-170.87 378.57,-173.9 385.19,-176 390.31,-177.62 395.88,-178.95 401.26,-180.04"/>
<polygon fill="black" stroke="black" points="400.75,-183.5 411.21,-181.82 401.99,-176.61 400.75,-183.5"/>
<text text-anchor="middle" x="389.19" y="-181.8" font-family="Helvetica,Arial,sans-serif" font-size="14.00">2</text>
</g>
<!-- 3&#45;&gt;6 -->
<g id="edge17" class="edge">
<title>3&#45;&gt;6</title>
<path fill="none" stroke="black" d="M335.24,-148.33C329.03,-143.52 321.22,-138.49 313.19,-136 306.44,-133.91 299.29,-135.34 292.8,-138.13"/>
<polygon fill="black" stroke="black" points="291.02,-135.11 283.89,-142.95 294.35,-141.27 291.02,-135.11"/>
<text text-anchor="middle" x="309.19" y="-139.8" font-family="Helvetica,Arial,sans-serif" font-size="14.00">0</text>
</g>
<!-- 3&#45;&gt;0 -->
<g id="edge16" class="edge">
<title>3&#45;&gt;0</title>
<path fill="none" stroke="black" d="M360.45,-145.71C366.67,-138.31 375.3,-130.01 385.19,-126 390.27,-123.94 395.96,-123.38 401.49,-123.64"/>
<polygon fill="black" stroke="black" points="401.37,-127.15 411.74,-124.95 402.26,-120.21 401.37,-127.15"/>
<text text-anchor="middle" x="389.19" y="-129.8" font-family="Helvetica,Arial,sans-serif" font-size="14.00">2</text>
</g>
</g>
</svg>
