<?xml version="1.0" encoding="UTF-8" standalone="no"?>
<!DOCTYPE svg PUBLIC "-//W3C//DTD SVG 1.1//EN"
 "http://www.w3.org/Graphics/SVG/1.1/DTD/svg11.dtd">
<!-- Generated by graphviz version 2.43.0 (0)
 -->
<!-- Title: finite_state_machine Pages: 1 -->
<svg width="641pt" height="264pt"
 viewBox="0.00 0.00 640.79 263.80" xmlns="http://www.w3.org/2000/svg" xmlns:xlink="http://www.w3.org/1999/xlink">
<g id="graph0" class="graph" transform="scale(1 1) rotate(0) translate(4 259.8)">
<title>finite_state_machine</title>
<polygon fill="white" stroke="transparent" points="-4,4 -4,-259.8 636.79,-259.8 636.79,4 -4,4"/>
<!-- 1 -->
<g id="node1" class="node">
<title>1</title>
<ellipse fill="none" stroke="black" cx="217" cy="-117" rx="18" ry="18"/>
<text text-anchor="middle" x="217" y="-113.3" font-family="Helvetica,Arial,sans-serif" font-size="14.00">1</text>
</g>
<!-- 5 -->
<g id="node2" class="node">
<title>5</title>
<ellipse fill="none" stroke="black" cx="310.8" cy="-58" rx="18" ry="18"/>
<text text-anchor="middle" x="310.8" y="-54.3" font-family="Helvetica,Arial,sans-serif" font-size="14.00">5</text>
</g>
<!-- 1&#45;&gt;5 -->
<g id="edge1" class="edge">
<title>1&#45;&gt;5</title>
<path fill="none" stroke="black" d="M228.75,-102.87C235.13,-95.27 243.75,-86.21 253,-80 262.28,-73.77 273.59,-68.93 283.66,-65.4"/>
<polygon fill="black" stroke="black" points="284.77,-68.72 293.2,-62.3 282.61,-62.06 284.77,-68.72"/>
<text text-anchor="middle" x="262.5" y="-83.8" font-family="Helvetica,Arial,sans-serif" font-size="14.00">0/2</text>
</g>
<!-- 6 -->
<g id="node3" class="node">
<title>6</title>
<ellipse fill="none" stroke="black" cx="310.8" cy="-177" rx="18" ry="18"/>
<text text-anchor="middle" x="310.8" y="-173.3" font-family="Helvetica,Arial,sans-serif" font-size="14.00">6</text>
</g>
<!-- 1&#45;&gt;6 -->
<g id="edge2" class="edge">
<title>1&#45;&gt;6</title>
<path fill="none" stroke="black" d="M232.75,-126.64C247.29,-136.14 269.72,-150.81 286.64,-161.86"/>
<polygon fill="black" stroke="black" points="285.1,-165.04 295.39,-167.58 288.93,-159.18 285.1,-165.04"/>
<text text-anchor="middle" x="262.5" y="-153.8" font-family="Helvetica,Arial,sans-serif" font-size="14.00">1/2</text>
</g>
<!-- 4 -->
<g id="node4" class="node">
<title>4</title>
<ellipse fill="none" stroke="black" cx="367.6" cy="-118" rx="18" ry="18"/>
<text text-anchor="middle" x="367.6" y="-114.3" font-family="Helvetica,Arial,sans-serif" font-size="14.00">4</text>
</g>
<!-- 1&#45;&gt;4 -->
<g id="edge3" class="edge">
<title>1&#45;&gt;4</title>
<path fill="none" stroke="black" d="M235.05,-117.11C260.44,-117.29 308.47,-117.61 338.94,-117.81"/>
<polygon fill="black" stroke="black" points="339.27,-121.32 349.29,-117.88 339.32,-114.32 339.27,-121.32"/>
<text text-anchor="middle" x="262.5" y="-120.8" font-family="Helvetica,Arial,sans-serif" font-size="14.00">2/2</text>
</g>
<!-- 7 -->
<g id="node5" class="node">
<title>7</title>
<ellipse fill="none" stroke="black" cx="421.6" cy="-18" rx="18" ry="18"/>
<text text-anchor="middle" x="421.6" y="-14.3" font-family="Helvetica,Arial,sans-serif" font-size="14.00">7</text>
</g>
<!-- 5&#45;&gt;7 -->
<g id="edge10" class="edge">
<title>5&#45;&gt;7</title>
<path fill="none" stroke="black" d="M327.93,-51.44C334.61,-48.76 342.46,-45.67 349.6,-43 364.42,-37.45 381.11,-31.56 394.58,-26.89"/>
<polygon fill="black" stroke="black" points="395.86,-30.15 404.17,-23.58 393.58,-23.53 395.86,-30.15"/>
<text text-anchor="middle" x="367.6" y="-46.8" font-family="Helvetica,Arial,sans-serif" font-size="14.00">1/1</text>
</g>
<!-- 10 -->
<g id="node6" class="node">
<title>10</title>
<ellipse fill="none" stroke="black" cx="515.39" cy="-72" rx="20.6" ry="20.6"/>
<text text-anchor="middle" x="515.39" y="-68.3" font-family="Helvetica,Arial,sans-serif" font-size="14.00">10</text>
</g>
<!-- 5&#45;&gt;10 -->
<g id="edge9" class="edge">
<title>5&#45;&gt;10</title>
<path fill="none" stroke="black" d="M329.07,-59.19C363.56,-61.58 441.34,-66.95 484.36,-69.92"/>
<polygon fill="black" stroke="black" points="484.29,-73.43 494.5,-70.63 484.77,-66.44 484.29,-73.43"/>
<text text-anchor="middle" x="421.6" y="-70.8" font-family="Helvetica,Arial,sans-serif" font-size="14.00">1/1</text>
</g>
<!-- 9 -->
<g id="node8" class="node">
<title>9</title>
<ellipse fill="none" stroke="black" cx="421.6" cy="-177" rx="18" ry="18"/>
<text text-anchor="middle" x="421.6" y="-173.3" font-family="Helvetica,Arial,sans-serif" font-size="14.00">9</text>
</g>
<!-- 6&#45;&gt;9 -->
<g id="edge12" class="edge">
<title>6&#45;&gt;9</title>
<path fill="none" stroke="black" d="M329.28,-177C346.59,-177 373.35,-177 393.43,-177"/>
<polygon fill="black" stroke="black" points="393.52,-180.5 403.52,-177 393.52,-173.5 393.52,-180.5"/>
<text text-anchor="middle" x="367.6" y="-180.8" font-family="Helvetica,Arial,sans-serif" font-size="14.00">2/2</text>
</g>
<!-- 4&#45;&gt;10 -->
<g id="edge8" class="edge">
<title>4&#45;&gt;10</title>
<path fill="none" stroke="black" d="M385.17,-113.46C406.46,-107.54 444.5,-96.69 476.6,-86 479.72,-84.96 482.97,-83.83 486.19,-82.68"/>
<polygon fill="black" stroke="black" points="487.45,-85.95 495.64,-79.23 485.05,-79.37 487.45,-85.95"/>
<text text-anchor="middle" x="421.6" y="-110.8" font-family="Helvetica,Arial,sans-serif" font-size="14.00">2/2</text>
</g>
<!-- 7&#45;&gt;10 -->
<g id="edge4" class="edge">
<title>7&#45;&gt;10</title>
<path fill="none" stroke="black" d="M438.66,-24.33C449.66,-28.93 464.4,-35.62 476.6,-43 481.25,-45.82 486.01,-49.1 490.52,-52.43"/>
<polygon fill="black" stroke="black" points="488.7,-55.45 498.77,-58.76 492.97,-49.9 488.7,-55.45"/>
<text text-anchor="middle" x="467.1" y="-46.8" font-family="Helvetica,Arial,sans-serif" font-size="14.00">0/1</text>
</g>
<!-- 12 -->
<g id="node7" class="node">
<title>12</title>
<ellipse fill="none" stroke="black" cx="611.99" cy="-25" rx="20.6" ry="20.6"/>
<text text-anchor="middle" x="611.99" y="-21.3" font-family="Helvetica,Arial,sans-serif" font-size="14.00">12</text>
</g>
<!-- 7&#45;&gt;12 -->
<g id="edge5" class="edge">
<title>7&#45;&gt;12</title>
<path fill="none" stroke="black" d="M439.65,-18.63C471.59,-19.82 540.82,-22.39 580.82,-23.88"/>
<polygon fill="black" stroke="black" points="580.91,-27.38 591.03,-24.26 581.17,-20.39 580.91,-27.38"/>
<text text-anchor="middle" x="515.39" y="-26.8" font-family="Helvetica,Arial,sans-serif" font-size="14.00">1/2</text>
</g>
<!-- 10&#45;&gt;12 -->
<g id="edge6" class="edge">
<title>10&#45;&gt;12</title>
<path fill="none" stroke="black" d="M534.63,-62.94C548.59,-56 568.07,-46.33 583.86,-38.48"/>
<polygon fill="black" stroke="black" points="585.73,-41.46 593.13,-33.87 582.62,-35.19 585.73,-41.46"/>
<text text-anchor="middle" x="563.69" y="-56.8" font-family="Helvetica,Arial,sans-serif" font-size="14.00">6/6</text>
</g>
<!-- 9&#45;&gt;10 -->
<g id="edge7" class="edge">
<title>9&#45;&gt;10</title>
<path fill="none" stroke="black" d="M437.65,-168.22C449.27,-160.92 465.24,-149.69 476.6,-137 486.42,-126.02 494.93,-112.1 501.37,-99.95"/>
<polygon fill="black" stroke="black" points="504.67,-101.18 506.08,-90.68 498.43,-98.01 504.67,-101.18"/>
<text text-anchor="middle" x="467.1" y="-156.8" font-family="Helvetica,Arial,sans-serif" font-size="14.00">3/4</text>
</g>
<!-- 11 -->
<g id="node9" class="node">
<title>11</title>
<ellipse fill="none" stroke="black" cx="310.8" cy="-235" rx="20.6" ry="20.6"/>
<text text-anchor="middle" x="310.8" y="-231.3" font-family="Helvetica,Arial,sans-serif" font-size="14.00">11</text>
</g>
<!-- 11&#45;&gt;9 -->
<g id="edge11" class="edge">
<title>11&#45;&gt;9</title>
<path fill="none" stroke="black" d="M329.72,-225.6C344.69,-217.73 366.56,-206.2 385.6,-196 389.03,-194.16 392.64,-192.21 396.2,-190.29"/>
<polygon fill="black" stroke="black" points="398.16,-193.21 405.28,-185.36 394.82,-187.05 398.16,-193.21"/>
<text text-anchor="middle" x="367.6" y="-217.8" font-family="Helvetica,Arial,sans-serif" font-size="14.00">1/2</text>
</g>
<!-- 8 -->
<g id="node10" class="node">
<title>8</title>
<ellipse fill="none" stroke="black" cx="217" cy="-236" rx="18" ry="18"/>
<text text-anchor="middle" x="217" y="-232.3" font-family="Helvetica,Arial,sans-serif" font-size="14.00">8</text>
</g>
<!-- 8&#45;&gt;11 -->
<g id="edge13" class="edge">
<title>8&#45;&gt;11</title>
<path fill="none" stroke="black" d="M235.27,-235.81C247.72,-235.68 264.86,-235.49 279.56,-235.33"/>
<polygon fill="black" stroke="black" points="279.77,-238.83 289.73,-235.22 279.69,-231.83 279.77,-238.83"/>
<text text-anchor="middle" x="262.5" y="-238.8" font-family="Helvetica,Arial,sans-serif" font-size="14.00">1/2</text>
</g>
<!-- 3 -->
<g id="node11" class="node">
<title>3</title>
<ellipse fill="none" stroke="black" cx="109" cy="-185" rx="18" ry="18"/>
<text text-anchor="middle" x="109" y="-181.3" font-family="Helvetica,Arial,sans-serif" font-size="14.00">3</text>
</g>
<!-- 3&#45;&gt;6 -->
<g id="edge15" class="edge">
<title>3&#45;&gt;6</title>
<path fill="none" stroke="black" d="M127.03,-184.32C161.76,-182.93 240.97,-179.76 282.79,-178.08"/>
<polygon fill="black" stroke="black" points="282.95,-181.58 292.81,-177.68 282.67,-174.58 282.95,-181.58"/>
<text text-anchor="middle" x="217" y="-184.8" font-family="Helvetica,Arial,sans-serif" font-size="14.00">1/2</text>
</g>
<!-- 3&#45;&gt;8 -->
<g id="edge14" class="edge">
<title>3&#45;&gt;8</title>
<path fill="none" stroke="black" d="M125.64,-192.53C142.86,-200.81 170.8,-214.25 191.05,-224"/>
<polygon fill="black" stroke="black" points="189.77,-227.26 200.3,-228.44 192.8,-220.95 189.77,-227.26"/>
<text text-anchor="middle" x="163" y="-221.8" font-family="Helvetica,Arial,sans-serif" font-size="14.00">1/2</text>
</g>
<!-- 0 -->
<g id="node12" class="node">
<title>0</title>
<ellipse fill="none" stroke="black" cx="18" cy="-117" rx="18" ry="18"/>
<text text-anchor="middle" x="18" y="-113.3" font-family="Helvetica,Arial,sans-serif" font-size="14.00">0</text>
</g>
<!-- 0&#45;&gt;1 -->
<g id="edge17" class="edge">
<title>0&#45;&gt;1</title>
<path fill="none" stroke="black" d="M36.14,-117C70.34,-117 147.31,-117 188.6,-117"/>
<polygon fill="black" stroke="black" points="188.76,-120.5 198.76,-117 188.76,-113.5 188.76,-120.5"/>
<text text-anchor="middle" x="109" y="-120.8" font-family="Helvetica,Arial,sans-serif" font-size="14.00">3/4</text>
</g>
<!-- 0&#45;&gt;3 -->
<g id="edge16" class="edge">
<title>0&#45;&gt;3</title>
<path fill="none" stroke="black" d="M32.91,-127.62C47.14,-138.5 69.48,-155.57 86.1,-168.27"/>
<polygon fill="black" stroke="black" points="84.12,-171.16 94.19,-174.45 88.37,-165.6 84.12,-171.16"/>
<text text-anchor="middle" x="63.5" y="-160.8" font-family="Helvetica,Arial,sans-serif" font-size="14.00">2/2</text>
</g>
<!-- 2 -->
<g id="node13" class="node">
<title>2</title>
<ellipse fill="none" stroke="black" cx="163" cy="-53" rx="18" ry="18"/>
<text text-anchor="middle" x="163" y="-49.3" font-family="Helvetica,Arial,sans-serif" font-size="14.00">2</text>
</g>
<!-- 0&#45;&gt;2 -->
<g id="edge18" class="edge">
<title>0&#45;&gt;2</title>
<path fill="none" stroke="black" d="M31.43,-104.71C37.77,-99 45.84,-92.49 54,-88 79.94,-73.74 112.63,-64.16 135.21,-58.68"/>
<polygon fill="black" stroke="black" points="136.16,-62.06 145.11,-56.39 134.57,-55.24 136.16,-62.06"/>
<text text-anchor="middle" x="63.5" y="-91.8" font-family="Helvetica,Arial,sans-serif" font-size="14.00">2/2</text>
</g>
<!-- 2&#45;&gt;5 -->
<g id="edge19" class="edge">
<title>2&#45;&gt;5</title>
<path fill="none" stroke="black" d="M181.01,-53.58C205.9,-54.44 252.5,-56.04 282.3,-57.06"/>
<polygon fill="black" stroke="black" points="282.33,-60.56 292.44,-57.4 282.57,-53.56 282.33,-60.56"/>
<text text-anchor="middle" x="217" y="-59.8" font-family="Helvetica,Arial,sans-serif" font-size="14.00">2/2</text>
</g>
</g>
</svg>
