<?xml version="1.0" encoding="UTF-8" standalone="no"?>
<!DOCTYPE svg PUBLIC "-//W3C//DTD SVG 1.1//EN"
 "http://www.w3.org/Graphics/SVG/1.1/DTD/svg11.dtd">
<!-- Generated by graphviz version 2.43.0 (0)
 -->
<!-- Title: finite_state_machine Pages: 1 -->
<svg width="861pt" height="463pt"
 viewBox="0.00 0.00 860.79 462.80" xmlns="http://www.w3.org/2000/svg" xmlns:xlink="http://www.w3.org/1999/xlink">
<g id="graph0" class="graph" transform="scale(1 1) rotate(0) translate(4 458.8)">
<title>finite_state_machine</title>
<polygon fill="white" stroke="transparent" points="-4,4 -4,-458.8 856.79,-458.8 856.79,4 -4,4"/>
<!-- 7 -->
<g id="node1" class="node">
<title>7</title>
<ellipse fill="none" stroke="black" cx="18" cy="-163.8" rx="18" ry="18"/>
<text text-anchor="middle" x="18" y="-160.1" font-family="Helvetica,Arial,sans-serif" font-size="14.00">7</text>
</g>
<!-- 10 -->
<g id="node2" class="node">
<title>10</title>
<ellipse fill="none" stroke="black" cx="100.8" cy="-163.8" rx="20.6" ry="20.6"/>
<text text-anchor="middle" x="100.8" y="-160.1" font-family="Helvetica,Arial,sans-serif" font-size="14.00">10</text>
</g>
<!-- 7&#45;&gt;10 -->
<g id="edge1" class="edge">
<title>7&#45;&gt;10</title>
<path fill="none" stroke="black" d="M36.14,-163.8C45.82,-163.8 58.22,-163.8 69.5,-163.8"/>
<polygon fill="black" stroke="black" points="69.84,-167.3 79.84,-163.8 69.84,-160.3 69.84,-167.3"/>
<text text-anchor="middle" x="58" y="-167.6" font-family="Helvetica,Arial,sans-serif" font-size="14.00">1</text>
</g>
<!-- 5 -->
<g id="node3" class="node">
<title>5</title>
<ellipse fill="none" stroke="black" cx="186.39" cy="-338.8" rx="18" ry="18"/>
<text text-anchor="middle" x="186.39" y="-335.1" font-family="Helvetica,Arial,sans-serif" font-size="14.00">5</text>
</g>
<!-- 7&#45;&gt;5 -->
<g id="edge2" class="edge">
<title>7&#45;&gt;5</title>
<path fill="none" stroke="black" d="M19.83,-181.97C22.15,-224.52 30.19,-328.82 54,-352.8 81.74,-380.73 131.33,-364.92 161.01,-351.47"/>
<polygon fill="black" stroke="black" points="162.74,-354.52 170.26,-347.06 159.72,-348.21 162.74,-354.52"/>
<text text-anchor="middle" x="100.8" y="-371.6" font-family="Helvetica,Arial,sans-serif" font-size="14.00">1</text>
</g>
<!-- 12 -->
<g id="node4" class="node">
<title>12</title>
<ellipse fill="none" stroke="black" cx="186.39" cy="-20.8" rx="20.6" ry="20.6"/>
<text text-anchor="middle" x="186.39" y="-17.1" font-family="Helvetica,Arial,sans-serif" font-size="14.00">12</text>
</g>
<!-- 7&#45;&gt;12 -->
<g id="edge3" class="edge">
<title>7&#45;&gt;12</title>
<path fill="none" stroke="black" d="M28.77,-149.07C47.24,-122.35 89.92,-65.8 139.6,-34.8 144.53,-31.72 150.2,-29.27 155.82,-27.35"/>
<polygon fill="black" stroke="black" points="157.12,-30.61 165.72,-24.42 155.14,-23.9 157.12,-30.61"/>
<text text-anchor="middle" x="100.8" y="-87.6" font-family="Helvetica,Arial,sans-serif" font-size="14.00">1</text>
</g>
<!-- 10&#45;&gt;5 -->
<g id="edge31" class="edge">
<title>10&#45;&gt;5</title>
<path fill="none" stroke="black" d="M105.96,-184.33C111.42,-208.61 122.38,-249.78 139.6,-281.8 146.71,-295.03 157.04,-308.21 166.08,-318.56"/>
<polygon fill="black" stroke="black" points="163.68,-321.12 172.98,-326.2 168.88,-316.43 163.68,-321.12"/>
<text text-anchor="middle" x="143.6" y="-296.6" font-family="Helvetica,Arial,sans-serif" font-size="14.00">1</text>
</g>
<!-- 10&#45;&gt;12 -->
<g id="edge34" class="edge">
<title>10&#45;&gt;12</title>
<path fill="none" stroke="black" d="M108.39,-144.13C114.97,-125.75 126.04,-97.91 139.6,-75.8 146.7,-64.21 156.09,-52.49 164.52,-42.86"/>
<polygon fill="black" stroke="black" points="167.23,-45.08 171.31,-35.31 162.02,-40.41 167.23,-45.08"/>
<text text-anchor="middle" x="143.6" y="-79.6" font-family="Helvetica,Arial,sans-serif" font-size="14.00">0</text>
</g>
<!-- 9 -->
<g id="node7" class="node">
<title>9</title>
<ellipse fill="none" stroke="black" cx="589.19" cy="-257.8" rx="18" ry="18"/>
<text text-anchor="middle" x="589.19" y="-254.1" font-family="Helvetica,Arial,sans-serif" font-size="14.00">9</text>
</g>
<!-- 10&#45;&gt;9 -->
<g id="edge33" class="edge">
<title>10&#45;&gt;9</title>
<path fill="none" stroke="black" d="M114.37,-179.69C121.14,-187.32 130.04,-196.03 139.6,-201.8 149.95,-208.05 153.76,-207.33 165.6,-209.8 312.81,-240.53 493.25,-252.74 560.88,-256.45"/>
<polygon fill="black" stroke="black" points="560.93,-259.96 571.1,-257 561.3,-252.97 560.93,-259.96"/>
<text text-anchor="middle" x="349.19" y="-243.6" font-family="Helvetica,Arial,sans-serif" font-size="14.00">3</text>
</g>
<!-- 4 -->
<g id="node10" class="node">
<title>4</title>
<ellipse fill="none" stroke="black" cx="509.19" cy="-133.8" rx="18" ry="18"/>
<text text-anchor="middle" x="509.19" y="-130.1" font-family="Helvetica,Arial,sans-serif" font-size="14.00">4</text>
</g>
<!-- 10&#45;&gt;4 -->
<g id="edge32" class="edge">
<title>10&#45;&gt;4</title>
<path fill="none" stroke="black" d="M118.6,-152.48C134.93,-142.59 160.8,-129.8 185.39,-129.8 185.39,-129.8 185.39,-129.8 390.19,-129.8 421.3,-129.8 456.99,-131.2 480.9,-132.35"/>
<polygon fill="black" stroke="black" points="480.84,-135.85 491,-132.85 481.19,-128.86 480.84,-135.85"/>
<text text-anchor="middle" x="309.19" y="-133.6" font-family="Helvetica,Arial,sans-serif" font-size="14.00">2</text>
</g>
<!-- 5&#45;&gt;7 -->
<g id="edge8" class="edge">
<title>5&#45;&gt;7</title>
<path fill="none" stroke="black" d="M169.65,-331.3C160.36,-326.46 148.7,-319.62 139.6,-311.8 95.44,-273.85 55.1,-218.3 34.13,-187.17"/>
<polygon fill="black" stroke="black" points="36.95,-185.09 28.5,-178.7 31.12,-188.97 36.95,-185.09"/>
<text text-anchor="middle" x="100.8" y="-297.6" font-family="Helvetica,Arial,sans-serif" font-size="14.00">0</text>
</g>
<!-- 5&#45;&gt;10 -->
<g id="edge9" class="edge">
<title>5&#45;&gt;10</title>
<path fill="none" stroke="black" d="M177.2,-323.31C167.84,-305.48 152.19,-275.23 139.6,-248.8 130.65,-230.03 121.15,-208.64 113.91,-192.02"/>
<polygon fill="black" stroke="black" points="117.11,-190.62 109.92,-182.83 110.69,-193.4 117.11,-190.62"/>
<text text-anchor="middle" x="143.6" y="-266.6" font-family="Helvetica,Arial,sans-serif" font-size="14.00">0</text>
</g>
<!-- 1 -->
<g id="node6" class="node">
<title>1</title>
<ellipse fill="none" stroke="black" cx="429.19" cy="-336.8" rx="18" ry="18"/>
<text text-anchor="middle" x="429.19" y="-333.1" font-family="Helvetica,Arial,sans-serif" font-size="14.00">1</text>
</g>
<!-- 5&#45;&gt;1 -->
<g id="edge11" class="edge">
<title>5&#45;&gt;1</title>
<path fill="none" stroke="black" d="M204.71,-338.65C246.1,-338.31 351.03,-337.44 400.97,-337.02"/>
<polygon fill="black" stroke="black" points="401.06,-340.52 411.03,-336.94 401,-333.52 401.06,-340.52"/>
<text text-anchor="middle" x="309.19" y="-341.6" font-family="Helvetica,Arial,sans-serif" font-size="14.00">0</text>
</g>
<!-- 2 -->
<g id="node8" class="node">
<title>2</title>
<ellipse fill="none" stroke="black" cx="269.19" cy="-397.8" rx="18" ry="18"/>
<text text-anchor="middle" x="269.19" y="-394.1" font-family="Helvetica,Arial,sans-serif" font-size="14.00">2</text>
</g>
<!-- 5&#45;&gt;2 -->
<g id="edge10" class="edge">
<title>5&#45;&gt;2</title>
<path fill="none" stroke="black" d="M195.57,-354.39C202.13,-365.38 212.36,-379.55 225.19,-387.8 230.03,-390.91 235.72,-393.05 241.35,-394.53"/>
<polygon fill="black" stroke="black" points="240.73,-397.98 251.23,-396.54 242.13,-391.12 240.73,-397.98"/>
<text text-anchor="middle" x="229.19" y="-394.6" font-family="Helvetica,Arial,sans-serif" font-size="14.00">2</text>
</g>
<!-- 12&#45;&gt;7 -->
<g id="edge35" class="edge">
<title>12&#45;&gt;7</title>
<path fill="none" stroke="black" d="M165.95,-16.78C143.2,-13.22 105.4,-11 80,-28.8 44.61,-53.59 29.4,-103.99 23.12,-135.7"/>
<polygon fill="black" stroke="black" points="19.65,-135.21 21.32,-145.68 26.54,-136.46 19.65,-135.21"/>
<text text-anchor="middle" x="100.8" y="-32.6" font-family="Helvetica,Arial,sans-serif" font-size="14.00">1</text>
</g>
<!-- 12&#45;&gt;10 -->
<g id="edge36" class="edge">
<title>12&#45;&gt;10</title>
<path fill="none" stroke="black" d="M166.21,-26.93C157.01,-30.75 146.52,-36.54 139.6,-44.8 118.54,-69.91 109.17,-106.86 105.03,-132.91"/>
<polygon fill="black" stroke="black" points="101.54,-132.6 103.6,-143 108.47,-133.59 101.54,-132.6"/>
<text text-anchor="middle" x="143.6" y="-48.6" font-family="Helvetica,Arial,sans-serif" font-size="14.00">6</text>
</g>
<!-- 6 -->
<g id="node5" class="node">
<title>6</title>
<ellipse fill="none" stroke="black" cx="509.19" cy="-334.8" rx="18" ry="18"/>
<text text-anchor="middle" x="509.19" y="-331.1" font-family="Helvetica,Arial,sans-serif" font-size="14.00">6</text>
</g>
<!-- 6&#45;&gt;1 -->
<g id="edge4" class="edge">
<title>6&#45;&gt;1</title>
<path fill="none" stroke="black" d="M491.46,-331.18C483.51,-329.89 473.87,-328.94 465.19,-329.8 462.45,-330.07 459.61,-330.46 456.79,-330.91"/>
<polygon fill="black" stroke="black" points="456.01,-327.5 446.83,-332.77 457.3,-334.38 456.01,-327.5"/>
<text text-anchor="middle" x="469.19" y="-333.6" font-family="Helvetica,Arial,sans-serif" font-size="14.00">2</text>
</g>
<!-- 6&#45;&gt;9 -->
<g id="edge5" class="edge">
<title>6&#45;&gt;9</title>
<path fill="none" stroke="black" d="M523.27,-323.49C531.94,-315.86 543.46,-305.45 553.19,-295.8 558.71,-290.33 564.5,-284.21 569.75,-278.5"/>
<polygon fill="black" stroke="black" points="572.35,-280.84 576.49,-271.09 567.17,-276.13 572.35,-280.84"/>
<text text-anchor="middle" x="549.19" y="-306.6" font-family="Helvetica,Arial,sans-serif" font-size="14.00">0</text>
</g>
<!-- 1&#45;&gt;5 -->
<g id="edge14" class="edge">
<title>1&#45;&gt;5</title>
<path fill="none" stroke="black" d="M411.54,-333.17C389.27,-328.51 348.49,-320.69 313.19,-317.8 278.47,-314.95 238.92,-323.53 213.58,-330.57"/>
<polygon fill="black" stroke="black" points="212.6,-327.21 203.97,-333.36 214.55,-333.94 212.6,-327.21"/>
<text text-anchor="middle" x="309.19" y="-321.6" font-family="Helvetica,Arial,sans-serif" font-size="14.00">2</text>
</g>
<!-- 1&#45;&gt;6 -->
<g id="edge13" class="edge">
<title>1&#45;&gt;6</title>
<path fill="none" stroke="black" d="M446.47,-342.35C454.49,-344.44 464.32,-346.04 473.19,-344.8 476.13,-344.39 479.16,-343.79 482.16,-343.09"/>
<polygon fill="black" stroke="black" points="483.27,-346.42 492.01,-340.44 481.45,-339.66 483.27,-346.42"/>
<text text-anchor="middle" x="469.19" y="-348.6" font-family="Helvetica,Arial,sans-serif" font-size="14.00">0</text>
</g>
<!-- 0 -->
<g id="node9" class="node">
<title>0</title>
<ellipse fill="none" stroke="black" cx="349.19" cy="-396.8" rx="18" ry="18"/>
<text text-anchor="middle" x="349.19" y="-393.1" font-family="Helvetica,Arial,sans-serif" font-size="14.00">0</text>
</g>
<!-- 1&#45;&gt;0 -->
<g id="edge12" class="edge">
<title>1&#45;&gt;0</title>
<path fill="none" stroke="black" d="M414.37,-347.43C402.76,-356.36 385.95,-369.29 372.45,-379.68"/>
<polygon fill="black" stroke="black" points="369.93,-377.2 364.14,-386.07 374.2,-382.75 369.93,-377.2"/>
<text text-anchor="middle" x="389.19" y="-371.6" font-family="Helvetica,Arial,sans-serif" font-size="14.00">4</text>
</g>
<!-- 1&#45;&gt;4 -->
<g id="edge15" class="edge">
<title>1&#45;&gt;4</title>
<path fill="none" stroke="black" d="M436.58,-320.19C450.15,-284.86 481.97,-202.05 498.24,-159.71"/>
<polygon fill="black" stroke="black" points="501.51,-160.95 501.83,-150.36 494.98,-158.43 501.51,-160.95"/>
<text text-anchor="middle" x="469.19" y="-244.6" font-family="Helvetica,Arial,sans-serif" font-size="14.00">0</text>
</g>
<!-- 9&#45;&gt;10 -->
<g id="edge30" class="edge">
<title>9&#45;&gt;10</title>
<path fill="none" stroke="black" d="M575.13,-246.18C568.9,-241.27 561.09,-235.97 553.19,-232.8 451.93,-192.16 419.31,-197.8 310.19,-197.8 185.39,-197.8 185.39,-197.8 185.39,-197.8 164.83,-197.8 143.38,-188.86 127.36,-180.15"/>
<polygon fill="black" stroke="black" points="129.01,-177.07 118.6,-175.12 125.53,-183.14 129.01,-177.07"/>
<text text-anchor="middle" x="349.19" y="-200.6" font-family="Helvetica,Arial,sans-serif" font-size="14.00">1</text>
</g>
<!-- 9&#45;&gt;6 -->
<g id="edge28" class="edge">
<title>9&#45;&gt;6</title>
<path fill="none" stroke="black" d="M571.74,-262.41C563.11,-265.44 552.79,-270.11 545.19,-276.8 535.16,-285.63 527.13,-298.06 521.31,-309.15"/>
<polygon fill="black" stroke="black" points="518.02,-307.9 516.77,-318.42 524.31,-310.98 518.02,-307.9"/>
<text text-anchor="middle" x="549.19" y="-280.6" font-family="Helvetica,Arial,sans-serif" font-size="14.00">2</text>
</g>
<!-- 11 -->
<g id="node13" class="node">
<title>11</title>
<ellipse fill="none" stroke="black" cx="671.99" cy="-279.8" rx="20.6" ry="20.6"/>
<text text-anchor="middle" x="671.99" y="-276.1" font-family="Helvetica,Arial,sans-serif" font-size="14.00">11</text>
</g>
<!-- 9&#45;&gt;11 -->
<g id="edge29" class="edge">
<title>9&#45;&gt;11</title>
<path fill="none" stroke="black" d="M605.98,-264.92C611.91,-267.38 618.77,-269.97 625.19,-271.8 630.3,-273.25 635.81,-274.48 641.18,-275.52"/>
<polygon fill="black" stroke="black" points="640.72,-278.99 651.18,-277.26 641.93,-272.09 640.72,-278.99"/>
<text text-anchor="middle" x="629.19" y="-276.6" font-family="Helvetica,Arial,sans-serif" font-size="14.00">1</text>
</g>
<!-- 2&#45;&gt;5 -->
<g id="edge7" class="edge">
<title>2&#45;&gt;5</title>
<path fill="none" stroke="black" d="M254.28,-387.64C242.05,-378.71 224.03,-365.55 209.77,-355.14"/>
<polygon fill="black" stroke="black" points="211.61,-352.15 201.47,-349.08 207.48,-357.8 211.61,-352.15"/>
<text text-anchor="middle" x="229.19" y="-375.6" font-family="Helvetica,Arial,sans-serif" font-size="14.00">0</text>
</g>
<!-- 2&#45;&gt;0 -->
<g id="edge6" class="edge">
<title>2&#45;&gt;0</title>
<path fill="none" stroke="black" d="M287.5,-397.58C297.3,-397.45 309.77,-397.29 320.86,-397.15"/>
<polygon fill="black" stroke="black" points="320.98,-400.65 330.93,-397.02 320.89,-393.65 320.98,-400.65"/>
<text text-anchor="middle" x="309.19" y="-400.6" font-family="Helvetica,Arial,sans-serif" font-size="14.00">2</text>
</g>
<!-- 0&#45;&gt;1 -->
<g id="edge18" class="edge">
<title>0&#45;&gt;1</title>
<path fill="none" stroke="black" d="M367.25,-395.69C375.65,-394.47 385.57,-391.95 393.19,-386.8 402.41,-380.57 409.96,-371.04 415.65,-361.96"/>
<polygon fill="black" stroke="black" points="418.75,-363.59 420.72,-353.18 412.69,-360.09 418.75,-363.59"/>
<text text-anchor="middle" x="389.19" y="-393.6" font-family="Helvetica,Arial,sans-serif" font-size="14.00">0</text>
</g>
<!-- 0&#45;&gt;2 -->
<g id="edge19" class="edge">
<title>0&#45;&gt;2</title>
<path fill="none" stroke="black" d="M334.65,-385.54C326.38,-380.02 315.45,-375.07 305.19,-377.8 301.01,-378.91 296.8,-380.65 292.83,-382.66"/>
<polygon fill="black" stroke="black" points="291.05,-379.64 284.1,-387.63 294.52,-385.72 291.05,-379.64"/>
<text text-anchor="middle" x="309.19" y="-381.6" font-family="Helvetica,Arial,sans-serif" font-size="14.00">0</text>
</g>
<!-- 3 -->
<g id="node11" class="node">
<title>3</title>
<ellipse fill="none" stroke="black" cx="834.79" cy="-347.8" rx="18" ry="18"/>
<text text-anchor="middle" x="834.79" y="-344.1" font-family="Helvetica,Arial,sans-serif" font-size="14.00">3</text>
</g>
<!-- 0&#45;&gt;3 -->
<g id="edge20" class="edge">
<title>0&#45;&gt;3</title>
<path fill="none" stroke="black" d="M362.82,-409.01C377.35,-421.72 402.52,-439.8 428.19,-439.8 428.19,-439.8 428.19,-439.8 755.79,-439.8 790.48,-439.8 812.93,-401.27 824.46,-374.08"/>
<polygon fill="black" stroke="black" points="827.76,-375.26 828.22,-364.67 821.26,-372.66 827.76,-375.26"/>
<text text-anchor="middle" x="589.19" y="-443.6" font-family="Helvetica,Arial,sans-serif" font-size="14.00">1</text>
</g>
<!-- 4&#45;&gt;10 -->
<g id="edge17" class="edge">
<title>4&#45;&gt;10</title>
<path fill="none" stroke="black" d="M495.52,-121.87C480.94,-109.46 455.72,-91.8 430.19,-91.8 228.19,-91.8 228.19,-91.8 228.19,-91.8 187.03,-91.8 173.94,-96.1 139.6,-118.8 131.89,-123.89 124.9,-131.01 119.09,-138.09"/>
<polygon fill="black" stroke="black" points="116.14,-136.19 112.84,-146.25 121.7,-140.44 116.14,-136.19"/>
<text text-anchor="middle" x="309.19" y="-95.6" font-family="Helvetica,Arial,sans-serif" font-size="14.00">0</text>
</g>
<!-- 4&#45;&gt;1 -->
<g id="edge16" class="edge">
<title>4&#45;&gt;1</title>
<path fill="none" stroke="black" d="M498.5,-148.39C488.94,-163.3 474.46,-187.38 465.19,-209.8 451.53,-242.87 441.49,-282.95 435.75,-309.12"/>
<polygon fill="black" stroke="black" points="432.29,-308.58 433.63,-319.09 439.14,-310.04 432.29,-308.58"/>
<text text-anchor="middle" x="469.19" y="-213.6" font-family="Helvetica,Arial,sans-serif" font-size="14.00">2</text>
</g>
<!-- 3&#45;&gt;6 -->
<g id="edge21" class="edge">
<title>3&#45;&gt;6</title>
<path fill="none" stroke="black" d="M821.84,-360.37C807.54,-373.99 782.2,-393.8 755.79,-393.8 588.19,-393.8 588.19,-393.8 588.19,-393.8 562.95,-393.8 540.72,-373.9 526.52,-357.21"/>
<polygon fill="black" stroke="black" points="529.21,-354.98 520.21,-349.38 523.76,-359.37 529.21,-354.98"/>
<text text-anchor="middle" x="671.99" y="-397.6" font-family="Helvetica,Arial,sans-serif" font-size="14.00">2</text>
</g>
<!-- 3&#45;&gt;0 -->
<g id="edge22" class="edge">
<title>3&#45;&gt;0</title>
<path fill="none" stroke="black" d="M816.75,-347.8C800.95,-347.8 776.78,-347.8 755.79,-347.8 588.19,-347.8 588.19,-347.8 588.19,-347.8 565.86,-347.8 563.59,-334.45 545.19,-321.8 536.84,-316.06 536.78,-311.09 527.19,-307.8 478.42,-291.06 456.64,-285.43 411.19,-309.8 386.91,-322.82 370.2,-350.25 360.49,-370.86"/>
<polygon fill="black" stroke="black" points="357.27,-369.49 356.4,-380.05 363.66,-372.33 357.27,-369.49"/>
<text text-anchor="middle" x="589.19" y="-351.6" font-family="Helvetica,Arial,sans-serif" font-size="14.00">1</text>
</g>
<!-- 8 -->
<g id="node12" class="node">
<title>8</title>
<ellipse fill="none" stroke="black" cx="754.79" cy="-290.8" rx="18" ry="18"/>
<text text-anchor="middle" x="754.79" y="-287.1" font-family="Helvetica,Arial,sans-serif" font-size="14.00">8</text>
</g>
<!-- 3&#45;&gt;8 -->
<g id="edge23" class="edge">
<title>3&#45;&gt;8</title>
<path fill="none" stroke="black" d="M830.04,-330.28C825.58,-314.26 816.41,-291.47 798.79,-280.8 793.2,-277.41 786.56,-277.39 780.19,-278.87"/>
<polygon fill="black" stroke="black" points="778.91,-275.61 770.59,-282.16 781.19,-282.23 778.91,-275.61"/>
<text text-anchor="middle" x="794.79" y="-284.6" font-family="Helvetica,Arial,sans-serif" font-size="14.00">1</text>
</g>
<!-- 8&#45;&gt;3 -->
<g id="edge24" class="edge">
<title>8&#45;&gt;3</title>
<path fill="none" stroke="black" d="M770.8,-299.98C779.19,-305.26 789.75,-312.14 798.79,-318.8 803.48,-322.25 808.37,-326.12 812.96,-329.88"/>
<polygon fill="black" stroke="black" points="810.86,-332.69 820.78,-336.41 815.35,-327.32 810.86,-332.69"/>
<text text-anchor="middle" x="794.79" y="-322.6" font-family="Helvetica,Arial,sans-serif" font-size="14.00">1</text>
</g>
<!-- 8&#45;&gt;11 -->
<g id="edge25" class="edge">
<title>8&#45;&gt;11</title>
<path fill="none" stroke="black" d="M740.43,-279.37C734.27,-274.83 726.59,-270.13 718.79,-267.8 712.94,-266.05 706.62,-266.32 700.61,-267.6"/>
<polygon fill="black" stroke="black" points="699.48,-264.28 690.9,-270.51 701.49,-270.99 699.48,-264.28"/>
<text text-anchor="middle" x="714.79" y="-271.6" font-family="Helvetica,Arial,sans-serif" font-size="14.00">1</text>
</g>
<!-- 11&#45;&gt;9 -->
<g id="edge27" class="edge">
<title>11&#45;&gt;9</title>
<path fill="none" stroke="black" d="M654.97,-267.38C648.57,-263.15 640.88,-258.95 633.19,-256.8 628.24,-255.41 622.84,-254.84 617.59,-254.75"/>
<polygon fill="black" stroke="black" points="617.09,-251.27 607.22,-255.13 617.35,-258.26 617.09,-251.27"/>
<text text-anchor="middle" x="629.19" y="-260.6" font-family="Helvetica,Arial,sans-serif" font-size="14.00">1</text>
</g>
<!-- 11&#45;&gt;8 -->
<g id="edge26" class="edge">
<title>11&#45;&gt;8</title>
<path fill="none" stroke="black" d="M692.96,-282.52C703.16,-283.91 715.72,-285.62 726.77,-287.12"/>
<polygon fill="black" stroke="black" points="726.4,-290.6 736.78,-288.48 727.34,-283.67 726.4,-290.6"/>
<text text-anchor="middle" x="714.79" y="-289.6" font-family="Helvetica,Arial,sans-serif" font-size="14.00">1</text>
</g>
</g>
</svg>
